<svg width="20" height="20" viewBox="0 0 20 20" fill="none" xmlns="http://www.w3.org/2000/svg">
<path d="M0 0.666667C0 0.489856 0.0702379 0.320286 0.195262 0.195262C0.320286 0.0702379 0.489856 0 0.666667 0H2.66667C2.81538 4.1082e-05 2.9598 0.0498009 3.07698 0.141366C3.19415 0.232932 3.27735 0.361045 3.31333 0.505333L3.85333 2.66667H19.3333C19.4312 2.66676 19.5279 2.6884 19.6165 2.73007C19.705 2.77173 19.7834 2.83239 19.8459 2.90774C19.9084 2.98308 19.9535 3.07127 19.978 3.16602C20.0026 3.26078 20.006 3.35978 19.988 3.456L17.988 14.1227C17.9594 14.2754 17.8783 14.4134 17.7588 14.5127C17.6392 14.6121 17.4888 14.6665 17.3333 14.6667H5.33333C5.17791 14.6665 5.02742 14.6121 4.90788 14.5127C4.78834 14.4134 4.70726 14.2754 4.67867 14.1227L2.68 3.476L2.14667 1.33333H0.666667C0.489856 1.33333 0.320286 1.2631 0.195262 1.13807C0.0702379 1.01305 0 0.843478 0 0.666667ZM4.136 4L5.88667 13.3333H16.78L18.5307 4H4.136ZM6.66667 14.6667C5.95942 14.6667 5.28115 14.9476 4.78105 15.4477C4.28095 15.9478 4 16.6261 4 17.3333C4 18.0406 4.28095 18.7189 4.78105 19.219C5.28115 19.719 5.95942 20 6.66667 20C7.37391 20 8.05219 19.719 8.55229 19.219C9.05238 18.7189 9.33333 18.0406 9.33333 17.3333C9.33333 16.6261 9.05238 15.9478 8.55229 15.4477C8.05219 14.9476 7.37391 14.6667 6.66667 14.6667ZM16 14.6667C15.2928 14.6667 14.6145 14.9476 14.1144 15.4477C13.6143 15.9478 13.3333 16.6261 13.3333 17.3333C13.3333 18.0406 13.6143 18.7189 14.1144 19.219C14.6145 19.719 15.2928 20 16 20C16.7072 20 17.3855 19.719 17.8856 19.219C18.3857 18.7189 18.6667 18.0406 18.6667 17.3333C18.6667 16.6261 18.3857 15.9478 17.8856 15.4477C17.3855 14.9476 16.7072 14.6667 16 14.6667ZM6.66667 16C7.02029 16 7.35943 16.1405 7.60948 16.3905C7.85952 16.6406 8 16.9797 8 17.3333C8 17.687 7.85952 18.0261 7.60948 18.2761C7.35943 18.5262 7.02029 18.6667 6.66667 18.6667C6.31305 18.6667 5.97391 18.5262 5.72386 18.2761C5.47381 18.0261 5.33333 17.687 5.33333 17.3333C5.33333 16.9797 5.47381 16.6406 5.72386 16.3905C5.97391 16.1405 6.31305 16 6.66667 16ZM16 16C16.3536 16 16.6928 16.1405 16.9428 16.3905C17.1929 16.6406 17.3333 16.9797 17.3333 17.3333C17.3333 17.687 17.1929 18.0261 16.9428 18.2761C16.6928 18.5262 16.3536 18.6667 16 18.6667C15.6464 18.6667 15.3072 18.5262 15.0572 18.2761C14.8071 18.0261 14.6667 17.687 14.6667 17.3333C14.6667 16.9797 14.8071 16.6406 15.0572 16.3905C15.3072 16.1405 15.6464 16 16 16V16Z" fill="black"/>
</svg>
