<svg width="12" height="20" viewBox="0 0 12 20" fill="none" xmlns="http://www.w3.org/2000/svg">
<path d="M0 13.9729C0.211429 16.3543 2.16143 18.0443 5.13 18.2629V20H6.62V18.2629C9.86286 18.0071 11.8743 16.2086 11.8743 13.5486C11.8743 11.2771 10.5214 9.96286 7.65143 9.22286L6.62 8.95571V3.52429C8.22286 3.68143 9.30429 4.54429 9.57714 5.83286H11.6771C11.44 3.54714 9.47714 1.90714 6.62 1.72571V0H5.13V1.76143C2.36 2.09 0.458572 3.86429 0.458572 6.27C0.458572 8.34714 1.83857 9.81714 4.26 10.4371L5.13143 10.6686V16.4271C3.49 16.1843 2.36 15.2843 2.08714 13.9729H0V13.9729ZM4.84429 8.49286C3.35429 8.11714 2.55857 7.31429 2.55857 6.18429C2.55857 4.83571 3.56429 3.84 5.13 3.57286V8.56571L4.84429 8.49429V8.49286ZM7.11714 11.1671C8.95571 11.6286 9.76286 12.3943 9.76286 13.6943C9.76286 15.2614 8.58286 16.3057 6.62 16.4643V11.0429L7.11714 11.1657V11.1671Z" fill="black"/>
</svg>
