<svg width="14" height="20" viewBox="0 0 14 20" fill="none" xmlns="http://www.w3.org/2000/svg">
<path d="M0 12.3669H1.77162C2.33327 17.2051 5.52818 20 10.5664 20C11.603 20 12.5113 19.8867 13.3313 19.6917V17.5251C12.5246 17.7234 11.5897 17.8084 10.5664 17.8084C7.06647 17.8084 4.8082 15.8118 4.27488 12.3685H10.9697V10.8219H4.16155V9.26197C4.16155 9.07864 4.16155 8.89698 4.17488 8.71365H10.9714V7.1687H4.36321C5.00986 4.00545 7.22813 2.19384 10.568 2.19384C11.5913 2.19384 12.5263 2.27717 13.333 2.48883V0.323891C12.4287 0.0997591 11.4996 -0.00888093 10.568 0.000567109C5.68817 0.000567109 2.53493 2.61549 1.82828 7.16703H0V8.71365H1.68329V10.8219H0V12.3685V12.3669Z" fill="black"/>
</svg>
