<svg width="20" height="20" viewBox="0 0 20 20" fill="none" xmlns="http://www.w3.org/2000/svg">
<path d="M19.605 15.7143L19.9954 19.2076C20.0177 19.4159 19.9582 19.6019 19.8169 19.7656C19.6756 19.9219 19.4972 20 19.2815 20H0.718523C0.502848 20 0.324358 19.9219 0.183054 19.7656C0.0417491 19.6019 -0.0177476 19.4159 0.00456366 19.2076L0.39501 15.7143H19.605ZM18.5675 6.35045L19.5269 15H0.4731L1.43248 6.35045C1.45479 6.17188 1.53288 6.02121 1.66675 5.89844C1.80062 5.77567 1.96052 5.71429 2.14644 5.71429H5.00228V7.14286C5.00228 7.5372 5.14173 7.87388 5.42062 8.1529C5.69951 8.43192 6.03604 8.57143 6.4302 8.57143C6.82437 8.57143 7.16089 8.43192 7.43978 8.1529C7.71868 7.87388 7.85812 7.5372 7.85812 7.14286V5.71429H12.1419V7.14286C12.1419 7.5372 12.2813 7.87388 12.5602 8.1529C12.8391 8.43192 13.1756 8.57143 13.5698 8.57143C13.964 8.57143 14.3005 8.43192 14.5794 8.1529C14.8583 7.87388 14.9977 7.5372 14.9977 7.14286V5.71429H17.8536C18.0395 5.71429 18.1994 5.77567 18.3332 5.89844C18.4671 6.02121 18.5452 6.17188 18.5675 6.35045ZM14.2838 4.28571V7.14286C14.2838 7.33631 14.2131 7.50372 14.0718 7.64509C13.9305 7.78646 13.7632 7.85714 13.5698 7.85714C13.3764 7.85714 13.2091 7.78646 13.0678 7.64509C12.9265 7.50372 12.8558 7.33631 12.8558 7.14286V4.28571C12.8558 3.49702 12.5769 2.82366 12.0192 2.26563C11.4614 1.70759 10.7883 1.42857 10 1.42857C9.21167 1.42857 8.53861 1.70759 7.98083 2.26563C7.42305 2.82366 7.14416 3.49702 7.14416 4.28571V7.14286C7.14416 7.33631 7.07351 7.50372 6.9322 7.64509C6.7909 7.78646 6.62357 7.85714 6.4302 7.85714C6.23684 7.85714 6.0695 7.78646 5.9282 7.64509C5.78689 7.50372 5.71624 7.33631 5.71624 7.14286V4.28571C5.71624 3.10268 6.13458 2.09263 6.97125 1.25558C7.80792 0.418527 8.8175 0 10 0C11.1825 0 12.1921 0.418527 13.0287 1.25558C13.8654 2.09263 14.2838 3.10268 14.2838 4.28571Z" fill="black"/>
</svg>
